# AST/ASF file generated using VICON BodyLanguage
# -----------------------------------------------
:version 1.10
:name VICON
:units
  mass 1.0
  length 0.45
  angle deg
:documentation
   .ast/.asf automatically generated from VICON data using
   VICON BodyBuilder and BodyLanguage model FoxedUp or BRILLIANT.MOD
:root
   order TX TY TZ RX RY RZ
   axis XYZ
   position 0 0 0  
   orientation 0 0 0 
:bonedata
  begin
     id 1 
     name lhipjoint
     direction 0.537252 -0.787203 0.302774 
     length 2.29576 
     axis 0 0 0  XYZ
  end
  begin
     id 2 
     name lfemur
     direction 0.34202 -0.939693 0  
     length 7.31114  
     axis 0 0 20  XYZ
    dof rx ry rz
    limits (-160.0 20.0)
           (-70.0 70.0)
           (-60.0 70.0)
  end
  begin
     id 3 
     name ltibia
     direction 0.34202 -0.939693 0   
     length 8.36008   
     axis 0 0 20   XYZ
    dof rx
    limits (-10.0 170.0)
  end
  begin
     id 4 
     name lfoot
     direction 0.0969116 -0.266263 0.959016   
     length 2.16704   
     axis -90 7.62852e-016 20   XYZ
    dof rx rz
    limits (-45.0 90.0)
           (-70.0 20.0)
  end
  begin
     id 5 
     name ltoes
     direction 1.53563e-011 -4.21779e-011 1   
     length 1.08338   
     axis -90 7.62852e-016 20   XYZ
    dof rx
    limits (-90.0 20.0)
  end
  begin
     id 6 
     name rhipjoint
     direction -0.588228 -0.754791 0.290308   
     length 2.39434  
     axis 0 0 0  XYZ 
  end
  begin
     id 7 
     name rfemur
     direction -0.34202 -0.939693 0   
     length 7.45207   
     axis 0 0 -20   XYZ
    dof rx ry rz
    limits (-160.0 20.0)
           (-70.0 70.0)
           (-70.0 60.0)
  end
  begin
     id 8 
     name rtibia
     direction -0.34202 -0.939693 0   
     length 8.03565   
     axis 0 0 -20   XYZ
    dof rx
    limits (-10.0 170.0)
 end
 begin
     id 9 
     name rfoot
     direction -0.107009 -0.294004 0.949795   
     length 2.11509  
     axis -90 -7.62852e-016 -20   XYZ
    dof rx rz
    limits (-45.0 90.0)
           (-20.0 70.0)
  end
  begin
     id 10 
     name rtoes
     direction -1.53533e-011 -4.22004e-011 1   
     length 1.05493   
     axis -90 -7.62852e-016 -20   XYZ
    dof rx
    limits (-90.0 20.0)
  end
  begin
     id 11 
     name lowerback
     direction -0.0115208 0.997969 -0.0626515   
     length 2.03153   
     axis 0 0 0   XYZ
    dof rx ry rz
    limits (-20.0 45.0)
           (-30.0 30.0)
           (-30.0 30.0)
  end
  begin
     id 12 
     name upperback
     direction -0.00423475 0.999974 -0.00583614   
     length 2.03619   
     axis 0 0 0   XYZ
    dof rx ry rz
    limits (-20.0 45.0)
           (-30.0 30.0)
           (-30.0 30.0)
  end
  begin
     id 13 
     name thorax
     direction 0.00289429 0.999728 0.0231573   
     length 2.03921   
     axis 0 0 0   XYZ
    dof rx ry rz
    limits (-20.0 45.0)
           (-30.0 30.0)
           (-30.0 30.0)
  end
  begin
     id 14 
     name lowerneck
     direction 0.0188995 0.987777 0.154721   
     length 1.78836   
     axis 0 0 0   XYZ
    dof rx ry rz
    limits (-20.0 45.0)
           (-30.0 30.0)
           (-30.0 30.0)
  end
  begin
     id 15 
     name upperneck
     direction -0.00612612 0.992995 -0.118   
     length 1.81789   
     axis 0 0 0   XYZ
    dof rx ry rz
    limits (-20.0 45.0)
           (-30.0 30.0)
           (-30.0 30.0)
  end
  begin
     id 16
     name head
     direction -0.00420226 0.998397 -0.0564482  
     length 1.82234  
     axis 0 0 0   XYZ
    dof rx ry rz
    limits (-20.0 45.0)
           (-30.0 30.0)
           (-30.0 30.0)
  end
  begin
     id 17 
     name lclavicle
     direction 0.916488 0.396539 0.0529676  
     length 3.51732  
     axis 0 0 0   XYZ
    dof ry rz
    limits (-20.0 10.0)
           (0.0 20.0)
  end
  begin
     id 18 
     name lhumerus
     direction 1 -4.4896e-011 8.36962e-028   
     length 5.45077   
     axis 180 -30 -90   XYZ
    dof rx ry rz
    limits (-60.0 90.0)
           (-90.0 90.0)
           (-90.0 90.0)
  end
  begin
     id 19
     name lradius
     direction 1 -4.48962e-011 3.01407e-027   
     length 3.05488   
     axis 180 -30 -90   XYZ
    dof rx
    limits (-10.0 170.0)
  end
  begin
     id 20
     name lwrist
     direction 1 -4.49002e-011 4.72961e-027   
     length 1.52744   
     axis -2.72261e-015 90 90   XYZ
    dof ry
    limits (-180.0 0.0)
 end
  begin
     id 21 
     name lhand
     direction 1 -4.4899e-011 9.45681e-027   
     length 0.638818   
     axis -6.0311e-015 90 90   XYZ
    dof rx rz
    limits (-90.0 90.0)
           (-45.0 45.0)
  end
  begin
     id 22 
     name lfingers
     direction 1 -4.48871e-011 1.88632e-026   
     length 0.515032   
     axis -1.20625e-014 90 90   XYZ
    dof rx
    limits (0.0 90.0)
  end
  begin
     id 23
     name lthumb
     direction 0.707107 -6.34964e-011 0.707107   
     length 0.739485   
     axis -90 45 6.32835e-014   XYZ
    dof rx rz
    limits (-45.0 45.0)
           (-45.0 45.0)
  end
  begin
     id 24 
     name rclavicle
     direction -0.949427 0.303202 0.0815894   
     length 3.76167  
     axis 0 0 0   XYZ 
    dof ry rz
    limits (-10.0 20.0)
           (-20.0 0.0)
  end
  begin
     id 25 
     name rhumerus
     direction -1 -4.48971e-011 -6.43969e-018  
     length 4.88702   
     axis 180 30 90   XYZ
    dof rx ry rz
    limits (-90.0 60.0)
           (-90.0 90.0)
           (-90.0 90.0)
  end
  begin
     id 26 
     name rradius
     direction -1 -4.48987e-011 5.46662e-027   
     length 3.22603   
     axis 180 30 90   XYZ
    dof rx
    limits (-10.0 170.0)
  end
  begin
     id 27 
     name rwrist
     direction -1 -4.48956e-011 4.72476e-027   
     length 1.61302   
     axis -2.72261e-015 -90 -90   XYZ
    dof ry
    limits (-180.0 0.0)
  end
  begin
     id 28
     name rhand
     direction -1 -4.4889e-011 9.43571e-027   
     length 0.716293   
     axis -6.0311e-015 -90 -90   XYZ
    dof rx rz
    limits (-90.0 90.0)
           (-45.0 45.0)
  end
  begin
     id 29
     name rfingers
     direction -1 -4.48887e-011 1.88701e-026   
     length 0.577494   
     axis -1.20625e-014 -90 -90   XYZ
    dof rx
    limits (0.0 90.0)
  end
  begin
     id 30
     name rthumb
     direction -0.707107 -6.34825e-011 0.707107   
     length 0.829169   
     axis -90 -45 -6.32835e-014   XYZ
    dof rx rz
    limits (-45.0 45.0)
           (-45.0 45.0)
  end
:hierarchy
  begin
    root lhipjoint rhipjoint lowerback
    lhipjoint lfemur
    lfemur ltibia
    ltibia lfoot
    lfoot ltoes
    rhipjoint rfemur
    rfemur rtibia
    rtibia rfoot
    rfoot rtoes
    lowerback upperback
    upperback thorax
    thorax lowerneck lclavicle rclavicle
    lowerneck upperneck
    upperneck head
    lclavicle lhumerus
    lhumerus lradius
    lradius lwrist
    lwrist lhand lthumb
    lhand lfingers
    rclavicle rhumerus
    rhumerus rradius
    rradius rwrist
    rwrist rhand rthumb
    rhand rfingers
  end

#!OML:ASF F:\VICON\USERDATA\INSTALL\rory3\rory3.ASF
:FULLY-SPECIFIED
:DEGREES
567
root 1.08347 18.5023 0.587647 44.5719 84.4416 35.6977
lowerback -8.53781 -0.920323 -2.29221
upperback -2.91466 -0.923896 -1.08498
thorax 1.78759 -0.422944 0.0781625
lowerneck -16.4832 4.42037 4.36682
upperneck 27.4589 6.604 -3.47499
head 12.023 3.15182 -0.996965
rclavicle 6.67676e-015 -2.18663e-015
rhumerus -27.5986 3.95702 -91.4887
rradius 26.0401
rwrist -2.27152
rhand -10.1708 8.75018
rfingers 7.12502
rthumb 15.8192 -20.6235
lclavicle 6.67676e-015 -2.18663e-015
lhumerus -32.4446 -17.1945 93.2032
lradius 40.3113
lwrist 33.0919
lhand -4.32979 32.0114
lfingers 7.12502
lthumb 21.4372 60.8453
rfemur -9.88895 -4.35498 13.5307
rtibia 10.1456
rfoot -9.16563 4.91974
rtoes -10.9444
lfemur -10.4803 12.0784 -21.2636
ltibia 14.6664
lfoot -13.4607 9.41549
ltoes -22.468
568
root 1.08642 18.501 0.588874 43.8184 84.4516 34.9276
lowerback -8.57134 -0.94884 -2.26336
upperback -2.93641 -0.963933 -1.0497
thorax 1.78452 -0.442527 0.0940566
lowerneck -16.6989 4.00146 3.90467
upperneck 27.0927 5.96447 -3.10547
head 11.8625 2.85389 -0.880823
rclavicle 1.50762e-014 5.56597e-015
rhumerus -26.9976 1.02746 -90.4854
rradius 23.7631
rwrist -0.303226
rhand -9.96903 9.37056
rfingers 7.12502
rthumb 16.0135 -19.9876
lclavicle 1.50762e-014 5.56597e-015
lhumerus -32.1594 -16.6034 93.1625
lradius 38.8716
lwrist 33.4964
lhand -5.26836 31.5839
lfingers 7.12502
lthumb 20.5356 60.5178
rfemur -9.87621 -4.39701 13.6116
rtibia 10.0861
rfoot -9.10221 5.0065
rtoes -11.6801
lfemur -10.5077 12.0687 -21.1898
ltibia 14.7122
lfoot -13.5248 9.43553
ltoes -22.2256
569
root 1.08933 18.5007 0.59066 43.5056 84.4551 34.6491
lowerback -8.54638 -1.00274 -2.28564
upperback -2.94877 -1.03548 -1.02246
thorax 1.76015 -0.477824 0.12797
lowerneck -16.856 3.60289 3.49241
upperneck 26.6649 5.36819 -2.81105
head 11.6798 2.57177 -0.79519
rclavicle -7.52975e-015 9.14409e-015
rhumerus -26.4823 -2.3935 -89.3019
rradius 21.6102
rwrist 2.29622
rhand -9.81829 9.78159
rfingers 7.12502
rthumb 16.1586 -19.5649
lclavicle -7.52975e-015 9.14409e-015
lhumerus -31.8413 -15.9731 93.0859
lradius 37.4282
lwrist 34.0032
lhand -6.31346 31.1816
lfingers 7.12502
lthumb 19.531 60.2206
rfemur -9.7825 -4.4809 13.6602
rtibia 9.98451
rfoot -9.03481 5.11591
rtoes -11.1866
lfemur -10.4895 12.114 -21.147
ltibia 14.7767
lfoot -13.5125 9.40342
ltoes -22.1778
570
root 1.09547 18.5012 0.592232 42.7515 84.4479 33.9445
lowerback -8.54293 -1.01876 -2.28234
upperback -2.95628 -1.05821 -0.991068
thorax 1.75146 -0.489026 0.156347
lowerneck -16.9563 3.15708 3.08608
upperneck 26.2028 4.71857 -2.5446
head 11.4785 2.26358 -0.729312
rclavicle 1.35111e-015 1.26725e-015
rhumerus -26.1896 -5.60689 -88.2043
rradius 19.8245
rwrist 4.57125
rhand -10.0573 9.61006
rfingers 7.12502
rthumb 15.9285 -19.7549
lclavicle 1.35111e-015 1.26725e-015
lhumerus -31.504 -15.1448 92.8636
lradius 36.0752
lwrist 33.5638
lhand -5.71499 30.8838
lfingers 7.12502
lthumb 20.1063 59.8634
rfemur -9.67186 -4.52914 13.7209
rtibia 9.90195
rfoot -8.98217 5.22621
rtoes -9.81956
lfemur -10.4287 12.1334 -21.0698
ltibia 14.8229
lfoot -13.5532 9.42574
ltoes -22.2872
571
root 1.10243 18.5005 0.592182 41.8609 84.4509 33.0573
lowerback -8.57406 -1.03784 -2.22638
upperback -2.97404 -1.08774 -0.967053
thorax 1.75036 -0.503552 0.146438
lowerneck -17.1369 2.74267 2.69416
upperneck 25.8395 4.11225 -2.2501
head 11.3387 1.97896 -0.646542
rclavicle -1.63038e-014 -7.03201e-015
rhumerus -26.0681 -8.75827 -87.1101
rradius 18.2957
rwrist 6.87307
rhand -10.2948 9.55788
rfingers 7.12502
rthumb 15.6998 -19.8252
lclavicle -1.63038e-014 -7.03201e-015
lhumerus -31.212 -14.2216 92.6058
lradius 34.7717
lwrist 32.8582
lhand -5.21447 30.6254
lfingers 7.12502
lthumb 20.5873 59.5537
rfemur -9.65007 -4.58026 13.7962
rtibia 9.89409
rfoot -8.97364 5.2898
rtoes -9.69238
lfemur -10.3852 12.1716 -20.9835
ltibia 14.8195
lfoot -13.615 9.39425
ltoes -22.192
572
root 1.10839 18.499 0.59159 41.264 84.3807 32.4292
lowerback -8.63015 -1.06033 -2.24517
upperback -3.0029 -1.11459 -0.937169
thorax 1.75294 -0.516223 0.184448
lowerneck -17.287 2.38557 2.32391
upperneck 25.4729 3.59721 -1.98365
head 11.2009 1.73493 -0.564119
rclavicle -9.10993e-015 -1.32068e-014
rhumerus -26.1103 -11.8026 -85.9522
rradius 16.9654
rwrist 9.34563
rhand -10.8048 9.71177
rfingers 7.12502
rthumb 15.2085 -19.7093
lclavicle -9.10993e-015 -1.32068e-014
lhumerus -30.982 -13.3859 92.4352
lradius 33.5653
lwrist 32.7679
lhand -6.60813 28.1805
lfingers 7.12502
lthumb 19.2477 57.248
rfemur -9.70645 -4.59996 13.7972
rtibia 9.93085
rfoot -8.99098 5.36903
rtoes -10.344
lfemur -10.3681 12.0944 -20.981
ltibia 14.7935
lfoot -13.7018 9.56292
ltoes -22.1468
573
root 1.11227 18.4981 0.590283 41.561 84.2196 32.7441
lowerback -8.61029 -1.07674 -2.37205
upperback -3.01758 -1.12565 -0.957811
thorax 1.72893 -0.520874 0.233694
lowerneck -17.4053 2.06203 2.07218
upperneck 25.0784 3.11989 -1.78989
head 11.0556 1.51063 -0.522726
rclavicle 1.39955e-014 1.15295e-014
rhumerus -26.3013 -14.7359 -84.7908
rradius 15.9897
rwrist 11.6624
rhand -11.3212 9.65484
rfingers 7.12502
rthumb 14.711 -19.8032
lclavicle 1.39955e-014 1.15295e-014
lhumerus -30.7203 -12.4731 92.1412
lradius 32.5001
lwrist 32.087
lhand -8.87067 23.3136
lfingers 7.12502
lthumb 17.0709 52.5836
rfemur -9.69906 -4.61148 13.6443
rtibia 9.95494
rfoot -8.95352 5.48637
rtoes -10.3468
lfemur -10.3236 12.0653 -21.1233
ltibia 14.7809
lfoot -13.7412 9.74891
ltoes -22.3007
574
root 1.11721 18.4972 0.58989 41.7853 84.1176 32.9801
lowerback -8.60648 -1.08706 -2.46627
upperback -3.02123 -1.13116 -0.968904
thorax 1.72466 -0.523179 0.274633
lowerneck -17.536 1.75004 1.88177
upperneck 24.6781 2.65632 -1.63878
head 10.9158 1.29273 -0.504602
rclavicle 3.35197e-014 1.10077e-014
rhumerus -26.6343 -17.0731 -83.8151
rradius 15.3932
rwrist 13.2698
rhand -11.8599 9.45629
rfingers 7.12502
rthumb 14.192 -20.0389
lclavicle 3.35197e-014 1.10077e-014
lhumerus -30.5022 -11.6789 91.8804
lradius 31.5995
lwrist 31.4456
lhand -9.662 20.7934
lfingers 7.12502
lthumb 16.3091 50.1276
rfemur -9.71679 -4.66116 13.5477
rtibia 10.0088
rfoot -8.94689 5.60282
rtoes -10.2153
lfemur -10.2661 12.1382 -21.2139
ltibia 14.752
lfoot -13.7741 9.68189
ltoes -22.2184
575
root 1.12262 18.4962 0.590312 41.5456 84.0927 32.7551
lowerback -8.56895 -1.09361 -2.48536
upperback -3.05068 -1.14035 -0.945494
thorax 1.67455 -0.526799 0.30951
lowerneck -17.5069 1.42869 1.60883
upperneck 24.1952 2.19438 -1.43118
head 10.7157 1.07619 -0.452738
rclavicle -1.53033e-014 1.23371e-014
rhumerus -27.0897 -18.3856 -83.1576
rradius 15.1513
rwrist 13.9206
rhand -12.3457 9.41027
rfingers 7.12502
rthumb 13.7239 -20.1172
lclavicle -1.53033e-014 1.23371e-014
lhumerus -30.4086 -11.0848 91.7976
lradius 30.7753
lwrist 31.3085
lhand -9.63153 20.6462
lfingers 7.12502
lthumb 16.3385 49.978
rfemur -9.73499 -4.66354 13.5459
rtibia 10.0622
rfoot -8.96205 5.70588
rtoes -9.81923
lfemur -10.1888 12.1309 -21.1952
ltibia 14.7164
lfoot -13.7926 9.6354
ltoes -21.8869
576
root 1.12563 18.4953 0.592317 40.6922 84.1025 31.8745
lowerback -8.55757 -1.09778 -2.46382
upperback -3.06764 -1.14995 -0.888001
thorax 1.65176 -0.531229 0.356127
lowerneck -17.5736 1.14086 1.38237
upperneck 23.7253 1.77024 -1.23361
head 10.5442 0.878329 -0.405718
rclavicle -2.08076e-015 1.47225e-015
rhumerus -27.4698 -18.4284 -83.0055
rradius 15.3074
rwrist 13.2249
rhand -12.5387 9.37127
rfingers 7.12502
rthumb 13.5378 -20.1686
lclavicle -2.08076e-015 1.47225e-015
lhumerus -30.3107 -10.667 91.7628
lradius 30.1077
lwrist 31.4419
lhand -9.65646 20.7035
lfingers 7.12502
lthumb 16.3144 50.0373
rfemur -9.78089 -4.55677 13.6392
rtibia 10.0872
rfoot -8.97768 5.7241
rtoes -9.60164
lfemur -10.193 12.1849 -21.1099
ltibia 14.6865
lfoot -13.7394 9.6902
ltoes -21.9986
